<svg width="24" height="24" viewBox="0 0 24 24" fill="none" xmlns="http://www.w3.org/2000/svg">
<path d="M6.71537 0.0409031C6.24974 0.148273 5.80458 0.526623 5.59479 0.981667C5.4771 1.23219 5.4771 1.26799 5.46175 3.39493C5.4464 5.83375 5.44128 5.80819 5.81481 5.95646C6.00925 6.03315 6.01437 6.04338 6.01437 6.27857C6.01437 6.51376 6.00925 6.52399 5.83016 6.58023C5.53339 6.68248 5.45152 6.87166 5.45152 7.49031C5.45152 7.99648 5.4464 8.02716 5.29801 8.20611C5.10869 8.44641 4.9603 8.78898 4.91425 9.09063C4.87332 9.38207 4.98589 9.86779 5.17009 10.1541L5.29801 10.3586L3.26152 10.374C1.25061 10.3893 1.22502 10.3893 0.964066 10.512C0.646823 10.6552 0.268178 11.0386 0.114673 11.3761C-0.0439481 11.734 -0.0388312 12.2913 0.135141 12.6645C0.293762 13.002 0.575187 13.2934 0.923131 13.4723L1.17897 13.6104L3.23593 13.6257L5.29801 13.6411L5.17009 13.8456C4.98589 14.1319 4.87332 14.6176 4.91425 14.909C4.95519 15.2056 5.10869 15.5533 5.29801 15.7885L5.4464 15.9725L5.46175 17.7569L5.4771 19.5413L5.61526 19.7969C5.79435 20.1446 6.086 20.4207 6.42371 20.5843C6.70514 20.7172 6.70514 20.7172 8.25554 20.7326L9.80082 20.7479V21.5557C9.80082 22.0006 9.8264 22.4863 9.85199 22.6346C9.99526 23.3964 10.5376 23.8872 11.3359 23.9946C11.5047 24.015 11.7299 23.9792 12.1801 23.8616C12.8863 23.6827 13.0244 23.5855 13.0705 23.2379C13.1012 23.0436 13.0858 22.9976 12.9579 22.8544C12.7481 22.6243 12.5997 22.609 12.0625 22.7573C11.3717 22.9515 11.1465 22.9209 10.9828 22.5988C10.9419 22.517 10.9265 20.0219 10.9265 13.5132V4.53509L11.0698 4.38171C11.2182 4.21298 10.9316 4.28967 15.9103 3.03192C16.8671 2.79161 17.7012 2.55642 17.7728 2.5104C17.9263 2.41326 18.0389 2.14739 18.0031 1.97356C17.9826 1.85596 17.998 1.83551 18.131 1.80995C18.2129 1.79461 18.3357 1.76393 18.4022 1.74859C18.5045 1.72303 18.5403 1.74859 18.6171 1.89175C18.7194 2.08604 18.8883 2.18318 19.1032 2.18318C19.18 2.18318 20.0396 1.98378 21.022 1.73837C22.5519 1.34979 22.8078 1.29866 22.8487 1.36513C22.8794 1.41114 22.8999 4.81118 22.8999 10.5018V19.5617L22.7822 19.6998C22.6799 19.8174 22.2756 19.9401 19.1134 20.8195C17.1588 21.3615 15.5163 21.8216 15.4651 21.8421C15.3372 21.8932 15.2246 22.1335 15.2246 22.3431C15.2246 22.6039 15.46 22.8391 15.7107 22.8391C15.9461 22.8391 22.8743 20.9371 23.1455 20.799C23.4167 20.661 23.7851 20.2469 23.9028 19.9503C23.9949 19.6998 24 19.439 24 10.466V1.23731L23.8874 0.997004C23.7339 0.659555 23.3962 0.316996 23.0585 0.153385L22.772 0.0102272L14.8409 0C10.3074 0 6.82794 0.0153389 6.71537 0.0409031ZM6.77166 8.7992C6.84841 8.8401 7.55965 9.52522 8.35787 10.3228L9.80082 11.7749V11.9998V12.2248L8.30159 13.728C6.89958 15.1289 6.78701 15.2312 6.58745 15.2567C6.39301 15.2823 6.3572 15.2669 6.19346 15.1033C6.00414 14.9142 5.9632 14.7045 6.07065 14.4898C6.10136 14.4284 6.3572 14.1472 6.63862 13.8609C7.07867 13.411 7.1503 13.319 7.17589 13.1349C7.20147 12.9457 7.18612 12.9048 7.02238 12.7412L6.84329 12.5623H4.26953C2.65773 12.5623 1.61902 12.5418 1.50133 12.5111C1.11757 12.4038 0.969183 11.9538 1.22502 11.6573L1.34783 11.5141L4.08021 11.4886C7.06332 11.463 6.94563 11.4732 7.1196 11.1511C7.27311 10.8648 7.19635 10.7012 6.64885 10.1592C6.38278 9.89335 6.12694 9.61214 6.086 9.53545C5.98367 9.34116 5.99902 9.12131 6.12182 8.96281C6.30603 8.73273 6.53117 8.67649 6.77166 8.7992Z" fill="#6A69FF"/>
</svg>
