<svg width="23" height="21" viewBox="0 0 23 21" fill="none" xmlns="http://www.w3.org/2000/svg">
<path d="M6.73437 0.104675C6.28437 0.2453 5.84375 0.6578 5.73125 1.06093C5.68906 1.19686 5.64687 1.36093 5.63281 1.43124L5.60937 1.56249H4.53594H3.4625L3.32187 1.67968C3.24219 1.7453 3.16719 1.86249 3.14844 1.93749C3.12031 2.06874 3.10625 2.07811 2.88594 2.07811C2.70781 2.07811 2.64687 2.05936 2.62812 1.99374C2.50156 1.60468 2.40312 1.56249 1.56875 1.56249C0.795312 1.56249 0.617187 1.61874 0.36875 1.91874C0.157812 2.17186 0.125 2.33124 0.125 3.08593C0.125 3.64374 0.139062 3.77499 0.223437 3.95311C0.340625 4.21561 0.429687 4.31405 0.664062 4.44061C0.846875 4.53436 0.9125 4.53905 3.24219 4.56249L5.63281 4.58592L5.66562 4.80624C5.73125 5.27499 6.08281 5.72967 6.5375 5.93592C6.84219 6.06717 7.64375 6.10467 8.00469 6.00155C8.58125 5.8328 8.98437 5.40624 9.09219 4.84842L9.14844 4.56249H15.1953C19.4703 4.56249 21.2984 4.54842 21.4297 4.51092C21.5469 4.47811 21.7016 4.37499 21.8328 4.23905C22.1141 3.96249 22.175 3.69999 22.1469 2.87499C22.1328 2.33593 22.1187 2.26561 22.0016 2.06874C21.8656 1.82968 21.7062 1.70311 21.4578 1.61874C21.3406 1.57655 19.6859 1.56249 15.2187 1.56249H9.13906L9.10625 1.33749C9.04062 0.821863 8.65156 0.343738 8.15937 0.156238C7.95312 0.0812376 7.79844 0.0624876 7.37656 0.0671751C7.08594 0.0671751 6.8 0.0859251 6.73437 0.104675ZM7.83125 1.11249C8.13594 1.23905 8.14531 1.31405 8.13125 3.13749L8.11719 4.75936L7.9625 4.8953C7.81719 5.02655 7.78906 5.03124 7.38594 5.03124C6.61719 5.03124 6.64062 5.09686 6.64062 3.02968C6.64062 1.22499 6.63594 1.24374 6.94062 1.11249C7.13281 1.0328 7.63437 1.02811 7.83125 1.11249Z" fill="#6A69FF"/>
<path d="M14.75 7.1078C14.1828 7.26717 13.7422 7.76405 13.6484 8.3453L13.6156 8.54686H13.325C12.9688 8.54686 12.7344 8.67342 12.6641 8.91249C12.6219 9.0578 12.6125 9.06249 12.3828 9.06249C12.1531 9.06249 12.1438 9.0578 12.1016 8.91249C12.0734 8.82342 11.9891 8.71561 11.8953 8.65467L11.7359 8.54686L6.28906 8.55624L0.842188 8.5703L0.617188 8.71092C0.448438 8.81405 0.35 8.92186 0.25625 9.10467C0.129688 9.34374 0.125 9.38124 0.125 10.0187C0.125 10.3797 0.148438 10.7594 0.176563 10.8578C0.2375 11.0875 0.471875 11.35 0.710938 11.4578C0.889063 11.5422 1.20781 11.5469 7.25469 11.5469H13.6156L13.6438 11.7531C13.7234 12.2828 14.1125 12.7703 14.6094 12.9578C14.9609 13.089 15.8188 13.0844 16.1891 12.9484C16.6578 12.7703 17.0422 12.2875 17.1172 11.7672L17.15 11.5515L19.3156 11.5375L21.4813 11.5234L21.6781 11.3969C21.7813 11.3265 21.9266 11.1672 22.0016 11.0453C22.1188 10.8437 22.1328 10.7781 22.1469 10.2344C22.1703 9.45624 22.1141 9.18436 21.8703 8.90311C21.5609 8.55155 21.5234 8.54686 19.175 8.54686H17.1547L17.0984 8.27499C17.0047 7.80624 16.6578 7.37499 16.2078 7.17342C15.9359 7.05155 15.0781 7.01405 14.75 7.1078ZM15.9734 8.21405L16.1094 8.34999V10.0609V11.7672L15.9875 11.889C15.8375 12.039 15.6453 12.0812 15.2328 12.0531C14.9563 12.0344 14.9094 12.0203 14.7922 11.8844L14.6563 11.7344V10.0422V8.34999L14.7922 8.21405C14.9281 8.0828 14.9469 8.07811 15.3828 8.07811C15.8188 8.07811 15.8375 8.0828 15.9734 8.21405Z" fill="#6A69FF"/>
<path d="M3.63125 14.1484C3.08281 14.3547 2.73594 14.7906 2.63281 15.4L2.60469 15.5781H1.75156C0.785937 15.5781 0.640625 15.6156 0.373437 15.9203C0.167187 16.1594 0.125 16.3469 0.125 17.1062C0.125 17.7437 0.129687 17.7812 0.25625 18.0203C0.35 18.2031 0.448437 18.3109 0.617187 18.4141L0.842187 18.5547L1.71406 18.5687C2.30469 18.5828 2.59531 18.6062 2.61875 18.6391C2.6375 18.6719 2.65625 18.7516 2.65625 18.8172C2.65625 19.0047 2.92344 19.4922 3.11562 19.6609C3.20937 19.7453 3.40156 19.8672 3.54687 19.9328C3.78125 20.0453 3.85625 20.0547 4.39062 20.0547C4.925 20.0547 5 20.0453 5.23437 19.9328C5.68906 19.7172 6.04531 19.2531 6.10625 18.7937L6.13437 18.5875L6.48594 18.5687C6.81406 18.5547 6.84687 18.5406 6.97344 18.4C7.04844 18.3156 7.10937 18.2078 7.10937 18.1562C7.10937 18.0766 7.14219 18.0625 7.32031 18.0625C7.47969 18.0625 7.53125 18.0812 7.53125 18.1375C7.53125 18.175 7.59219 18.2734 7.66719 18.3484C7.91094 18.5875 8.35156 18.4937 8.46875 18.175C8.51094 18.0719 8.53906 18.0625 8.80625 18.0625H9.10156L9.18125 18.25C9.32656 18.6016 8.90937 18.5781 15.3828 18.5781C19.6672 18.5781 21.2328 18.5641 21.3969 18.5219C21.5516 18.4844 21.6781 18.4047 21.8328 18.25C22.1141 17.9687 22.175 17.7156 22.1469 16.8953C22.1328 16.375 22.1141 16.2812 22.0156 16.0937C21.95 15.9812 21.8047 15.8219 21.6969 15.7422L21.4906 15.6016L13.8125 15.5875L6.13906 15.5781L6.10625 15.3625C6.04531 14.8891 5.73594 14.4484 5.30937 14.2281C5.08906 14.1156 5.01875 14.1016 4.4375 14.0922C3.97812 14.0828 3.75781 14.0969 3.63125 14.1484ZM4.89219 15.1562C4.99062 15.2172 5.05625 15.3016 5.08906 15.4234C5.12187 15.5312 5.14062 16.1922 5.14062 17.0922C5.14062 18.6906 5.12656 18.8125 4.90156 18.9719C4.77031 19.0656 4.08594 19.075 3.89844 18.9906C3.65 18.8781 3.64062 18.8172 3.64062 17.0406C3.64062 15.4375 3.64062 15.4 3.73906 15.2781C3.875 15.1047 3.98281 15.0672 4.39062 15.0672C4.65781 15.0625 4.775 15.0859 4.89219 15.1562Z" fill="#6A69FF"/>
</svg>
