<svg width="23" height="23" viewBox="0 0 23 23" fill="none" xmlns="http://www.w3.org/2000/svg">
<path d="M10.2641 0.265614C5.58597 0.654677 1.69534 3.89843 0.476593 8.42186C0.251593 9.2703 0.162531 9.88905 0.139093 10.8828C0.115656 11.6984 0.125031 11.8437 0.190656 11.975C0.284406 12.1531 0.401593 12.2234 0.640656 12.2328C0.964093 12.2422 1.17972 11.9328 1.12347 11.525C1.08597 11.2531 1.18909 10.0156 1.29691 9.4203C1.55472 7.99999 2.16878 6.57499 3.06409 5.3328C3.46722 4.7703 4.56409 3.65936 5.11722 3.25155C6.62659 2.13593 8.33753 1.47968 10.175 1.30155C12.261 1.0953 14.4735 1.59686 16.25 2.67499C18.8469 4.24999 20.586 6.88905 21.0078 9.88436C21.1063 10.5781 21.1063 11.8906 21.0078 12.575C20.6047 15.4625 19.025 17.9656 16.5782 19.6016C14.7594 20.8156 12.2469 21.4156 10.0391 21.1719C8.15472 20.9609 6.24691 20.1594 4.79847 18.9781C4.38597 18.6406 3.64066 17.8859 3.30784 17.4687C2.72659 16.7422 2.10784 15.6641 1.77034 14.7781C1.69066 14.5719 1.58284 14.3562 1.52659 14.3C1.23597 13.9906 0.687531 14.2203 0.687531 14.6422C0.687531 14.7266 0.771906 15.0125 0.879718 15.275C2.18753 18.5609 4.99066 21.0312 8.39378 21.8984C9.38753 22.1516 9.99691 22.2219 11.1172 22.2219C12.2328 22.2219 12.8469 22.1516 13.836 21.8984C16.9391 21.1109 19.5688 18.9687 20.9844 16.0859C22.6953 12.6031 22.4469 8.47343 20.3235 5.22968C19.2313 3.56093 17.736 2.23905 15.9453 1.36718C14.4782 0.649989 13.0813 0.303114 11.4219 0.246864C11.0469 0.237489 10.5266 0.242177 10.2641 0.265614Z" fill="#6A69FF"/>
<path d="M10.2032 2.26248C10.1376 2.27186 9.92665 2.30467 9.73447 2.3328C8.50165 2.51092 7.22197 3.01248 6.10165 3.7578C2.37978 6.23748 1.04853 11.0984 2.98447 15.1156C3.5704 16.3297 4.33447 17.314 5.34228 18.1531C6.98759 19.5312 8.92353 20.2344 11.0704 20.239C12.8282 20.239 14.3376 19.8265 15.772 18.9547C19.386 16.7515 20.9938 12.3969 19.6673 8.39842C19.1845 6.94529 18.2704 5.54373 17.1501 4.5453C16.4704 3.9453 16.1423 3.7203 15.922 3.7203C15.6735 3.7203 15.5142 3.83748 15.4485 4.0578C15.3642 4.34373 15.4485 4.48905 15.8938 4.82655C17.3845 5.96092 18.4157 7.51248 18.8751 9.30311C18.9548 9.62186 19.0017 9.89842 19.086 10.5406L19.1095 10.7187H18.8892C18.3876 10.7187 18.1251 10.8969 18.1251 11.239C18.1251 11.375 18.1626 11.4594 18.261 11.5719C18.3876 11.7125 18.4204 11.7265 18.7532 11.7406L19.1095 11.7594L19.0813 12.0031C18.8517 14 18.0501 15.6453 16.6392 17C15.9829 17.6375 15.4438 18.0125 14.6329 18.4109C13.7188 18.8562 12.4907 19.2031 11.811 19.2031H11.6095V18.9219C11.6095 18.4531 11.4642 18.2656 11.0938 18.2656C10.9392 18.2656 10.8688 18.2937 10.761 18.4015C10.6345 18.5281 10.6251 18.5656 10.6251 18.8797V19.2172L10.2595 19.189C9.44853 19.1281 8.40322 18.8187 7.55478 18.3969C5.65634 17.45 4.19853 15.7765 3.52822 13.7656C3.35947 13.2547 3.20478 12.5469 3.14853 12.0406L3.1204 11.75H3.4204C3.80478 11.75 4.01572 11.6234 4.08603 11.3562C4.11884 11.2109 4.10947 11.1453 4.03915 11.0047C3.93134 10.8078 3.73915 10.7234 3.36884 10.7234L3.11572 10.7187L3.14853 10.4703C3.26572 9.52811 3.43447 8.86248 3.76259 8.08904C4.86415 5.47811 7.48915 3.54217 10.2876 3.28436L10.6251 3.25155V3.58905C10.6251 3.90311 10.6345 3.94061 10.761 4.06248C10.9298 4.23123 11.1032 4.27811 11.286 4.20311C11.5298 4.09998 11.6095 3.94998 11.6095 3.58905V3.26561H11.7688C12.2657 3.26561 13.5032 3.56561 14.197 3.85623C14.5813 4.01561 14.7688 4.00623 14.9657 3.80936C15.1673 3.6078 15.1813 3.38748 15.0079 3.17655C14.7688 2.8953 13.372 2.44998 12.2798 2.30467C11.8017 2.24373 10.522 2.21561 10.2032 2.26248Z" fill="#6A69FF"/>
<path d="M12.2141 5.49219C12.1438 5.52969 12.0594 5.6375 12.0219 5.73594C11.9844 5.83438 11.736 6.77188 11.4688 7.82188L10.986 9.725L10.7704 9.78125C9.97819 9.97813 9.486 10.7563 9.65944 11.5391C9.69225 11.6938 9.73444 11.8531 9.75319 11.8953C9.77662 11.9469 9.57975 12.1906 9.08756 12.7391C8.70319 13.1656 8.36569 13.5594 8.33287 13.6109C8.11256 14.0281 8.55787 14.4781 8.99381 14.2766C9.05475 14.2531 9.42037 13.8734 9.80475 13.4375C10.4797 12.6781 10.5126 12.6453 10.6485 12.6781C10.7282 12.6969 10.9579 12.7109 11.1641 12.7109C11.6282 12.7063 11.9141 12.575 12.2329 12.2188C12.4954 11.9281 12.5938 11.6469 12.5938 11.2109C12.5938 10.9297 12.5704 10.8266 12.4532 10.5875C12.3735 10.4328 12.2282 10.2359 12.1344 10.1469L11.9563 9.99219L12.4391 8.09375C12.7063 7.04844 12.9407 6.11563 12.9547 6.02188C13.0204 5.57656 12.6079 5.28125 12.2141 5.49219ZM11.4829 10.9109C11.6797 11.15 11.6329 11.4734 11.3751 11.6469C10.9251 11.9516 10.386 11.3609 10.7235 10.9344C10.9016 10.7094 11.3047 10.6953 11.4829 10.9109Z" fill="#6A69FF"/>
<path d="M0.47188 12.575C0.17188 12.7203 0.11563 13.1047 0.354692 13.3484C0.462505 13.4563 0.532817 13.4844 0.687505 13.4844C0.931255 13.4844 1.04375 13.4234 1.13282 13.25C1.25 13.0203 1.22188 12.8375 1.04375 12.6594C0.86563 12.4813 0.706255 12.4578 0.47188 12.575Z" fill="#6A69FF"/>
</svg>
