<svg width="24" height="24" viewBox="0 0 24 24" fill="none" xmlns="http://www.w3.org/2000/svg">
<path d="M2.23594 1.12967C1.81406 1.22811 1.44844 1.52342 1.22813 1.93592L1.10156 2.17967L1.0875 8.71405C1.07344 15.9187 1.05469 15.3797 1.36406 15.5437C1.56563 15.6469 1.79063 15.5953 1.94063 15.4172L2.0625 15.2719V8.93436C2.0625 4.44842 2.07656 2.54998 2.11406 2.44217C2.14219 2.3578 2.19844 2.29686 2.24063 2.29686C2.2875 2.29686 4.68281 2.89686 7.56563 3.6328C12.1828 4.80467 12.8297 4.97811 12.9328 5.08592L13.0547 5.20311L13.0781 7.01248L13.1016 8.82186L13.2563 8.9578C13.3406 9.0328 13.4484 9.09373 13.5 9.09373C13.5797 9.09373 13.5938 9.12655 13.5938 9.32811C13.5938 9.51092 13.575 9.57186 13.5141 9.59061C13.3313 9.65155 13.2094 9.72655 13.1578 9.8203C13.1156 9.89061 13.0969 11.4375 13.0781 15.8578L13.0547 21.8062L12.9 21.9422C12.8063 22.0265 12.6984 22.0781 12.6094 22.0781C12.4688 22.0781 2.49375 19.3453 2.34844 19.2656C2.12813 19.1484 2.09063 19.0453 2.0625 18.45C2.03906 17.8219 2.01094 17.7515 1.75313 17.6437C1.54219 17.5547 1.28906 17.6344 1.17188 17.8265C1.09219 17.9531 1.07812 18.0656 1.07812 18.5203C1.07812 18.8625 1.10156 19.1437 1.14844 19.2937C1.24219 19.6078 1.52344 19.9547 1.80469 20.114C1.96875 20.2078 3.56719 20.6672 7.14844 21.6609C12.9281 23.2594 12.6703 23.2078 13.2328 22.9312C13.5891 22.7531 13.8328 22.4906 13.9734 22.125C14.0484 21.9234 14.0625 21.764 14.0625 21.0047V20.114L15.5063 20.1L16.9453 20.0859L17.2125 19.9547C17.5359 19.7953 17.8641 19.4437 17.9813 19.1344C18.0563 18.9422 18.0703 18.7172 18.0844 17.3344L18.0984 15.7547L18.3609 15.9C18.5813 16.0265 18.6844 16.05 19.0078 16.0687C19.6688 16.1015 19.6734 16.1015 21.3469 14.4422C23.0109 12.7875 23.0625 12.7219 23.0625 12.089C23.0625 11.4797 23.0063 11.4 21.3656 9.76873C20.4609 8.86873 19.8703 8.31561 19.7344 8.2453C19.5563 8.15155 19.4531 8.1328 19.0781 8.1328C18.6609 8.1328 18.6141 8.14217 18.3656 8.2828L18.0984 8.43748L18.0844 5.35311C18.0656 1.80467 18.0891 2.00623 17.6297 1.54217C17.1562 1.06873 17.5688 1.10155 12.1313 1.10155H7.41094L7.27969 1.19998C7.20938 1.25623 7.12969 1.36405 7.10625 1.44842C7.06875 1.58905 7.05469 1.59373 6.825 1.59373C6.59063 1.59373 6.58125 1.58905 6.53906 1.44373C6.51094 1.35467 6.42656 1.24686 6.33281 1.18592L6.17344 1.07811L4.29375 1.0828C3.25781 1.08748 2.33438 1.10623 2.23594 1.12967ZM19.3031 9.15936C19.5234 9.27655 22.0219 11.8219 22.0547 11.9625C22.0734 12.0375 22.0734 12.15 22.0547 12.2203C22.0125 12.3984 19.3828 15.0281 19.2094 15.0703C18.8859 15.15 18.6094 14.9297 18.6094 14.5875C18.6094 14.3859 18.6234 14.3625 19.1203 13.8562C19.6734 13.289 19.7484 13.1437 19.6219 12.8953C19.4672 12.5953 19.5984 12.6094 16.725 12.6094H14.1094V12.1172V11.6297L16.7063 11.6156C19.2609 11.6015 19.3078 11.6015 19.4391 11.5031C19.5094 11.4515 19.5984 11.3484 19.6313 11.2781C19.7484 11.0437 19.6641 10.889 19.1203 10.3312C18.6281 9.82498 18.6094 9.80155 18.6094 9.60467C18.6141 9.3703 18.675 9.26717 18.8719 9.16405C19.0406 9.07498 19.1438 9.07498 19.3031 9.15936Z" fill="#6A69FF"/>
<path d="M1.41098 16.0359C0.881296 16.1484 0.895359 16.8937 1.42973 16.9969C1.82817 17.0719 2.16098 16.5937 1.93598 16.2656C1.7813 16.0359 1.65473 15.9844 1.41098 16.0359Z" fill="#6A69FF"/>
</svg>
