<svg width="24" height="24" viewBox="0 0 24 24" fill="none" xmlns="http://www.w3.org/2000/svg">
<path d="M5.78443 3.58125C5.61568 3.65625 1.57506 6.67969 1.42037 6.84844C1.15318 7.14375 1.10162 7.575 1.28912 7.95469C1.40162 8.175 1.55162 8.30156 3.50631 9.76406C4.65943 10.6266 5.66724 11.3672 5.75162 11.4094C5.96256 11.5125 6.37974 11.5078 6.60474 11.3953C6.83912 11.2734 7.05943 11.0156 7.12037 10.7953C7.14849 10.6969 7.17193 10.3687 7.17193 10.0641V9.51562H10.4672C12.9844 9.51562 13.786 9.50156 13.8704 9.45469C14.1891 9.29062 14.2641 8.89687 14.0204 8.65312L13.8751 8.50781L10.2751 8.49375C7.77662 8.48437 6.62818 8.49375 6.50162 8.53125C6.20162 8.62031 6.16881 8.72344 6.14068 9.64219L6.11724 10.4531L4.16256 8.99062C2.32037 7.6125 2.21256 7.51875 2.28756 7.44375C2.32974 7.40156 3.21099 6.73125 4.24224 5.95781L6.11724 4.55156L6.14068 5.35781C6.16412 6.20156 6.19224 6.31875 6.38912 6.43125C6.46881 6.47812 7.57037 6.49687 11.5079 6.52031C16.5001 6.54375 16.5282 6.54375 16.9922 6.65156C17.8547 6.84375 18.5813 7.15781 19.2938 7.63125C20.611 8.51719 21.586 9.91406 21.961 11.4516C22.4297 13.3687 22.0266 15.3281 20.8501 16.8937C20.2688 17.6672 19.4204 18.3891 18.6141 18.7969C18.1922 19.0031 17.4938 19.2516 16.9922 19.3641C16.5282 19.4719 16.5001 19.4719 11.5079 19.4953C5.96724 19.5281 6.32349 19.5047 6.19224 19.8141C6.11724 19.9969 6.21099 20.2781 6.38912 20.4094L6.52037 20.5078H11.4516C16.8797 20.5078 16.6969 20.5172 17.7422 20.2125C18.5579 19.9734 19.1672 19.6875 19.8563 19.2234C21.4829 18.1266 22.5891 16.4812 23.0204 14.5172C23.1422 13.9641 23.1891 12.6703 23.1141 12.0703C22.7204 9.075 20.5547 6.56719 17.6813 5.78437C16.6829 5.5125 16.8563 5.52187 11.8266 5.49844L7.17193 5.47969V4.93594C7.17193 4.31719 7.12506 4.10625 6.92349 3.8625C6.66568 3.55312 6.15006 3.42187 5.78443 3.58125Z" fill="#6A69FF"/>
<path d="M14.9722 8.52655C14.6066 8.68593 14.5738 9.21093 14.9159 9.42187C15.0425 9.49687 15.155 9.51562 15.5534 9.51562C16.4159 9.51562 17.1472 9.74999 17.7988 10.2328C18.3659 10.6547 18.8722 11.4234 19.0644 12.1406C19.1769 12.5578 19.1769 13.4578 19.0644 13.875C18.7503 15.0516 17.8831 15.9516 16.6644 16.3641L16.3363 16.4766L9.53938 16.5C3.15969 16.5234 2.72844 16.5281 2.53157 16.6078C1.85188 16.8797 1.38313 17.3953 1.21438 18.0609C1.18157 18.2016 1.1675 18.4359 1.18625 18.6656C1.23313 19.3687 1.67375 20.0109 2.31594 20.3156C2.76594 20.5266 3.67063 20.5922 3.92844 20.4328C4.05032 20.3531 4.17219 20.1187 4.17219 19.95C4.17219 19.8844 4.11125 19.7625 4.03625 19.6781C3.90032 19.5234 3.89563 19.5234 3.38938 19.5C2.92063 19.4766 2.855 19.4625 2.64875 19.3359C2.04407 18.9656 2.03938 18.075 2.63469 17.6812L2.83157 17.5547L9.58157 17.5266C17.0816 17.4984 16.5378 17.5219 17.3769 17.1844C18.0988 16.8891 18.8769 16.275 19.3409 15.6328C19.5613 15.3328 19.9363 14.5406 20.03 14.1797C20.3066 13.1484 20.2081 12.0703 19.7488 11.0953C19.1675 9.85311 17.9816 8.89687 16.6597 8.60155C16.28 8.51718 15.1175 8.46561 14.9722 8.52655Z" fill="#6A69FF"/>
<path d="M4.65947 19.6594C4.42978 19.8891 4.44853 20.1937 4.70635 20.4C4.84697 20.5172 5.16103 20.5078 5.31103 20.3906C5.58291 20.175 5.5501 19.725 5.25478 19.575C5.02041 19.4531 4.84228 19.4766 4.65947 19.6594Z" fill="#6A69FF"/>
</svg>
